<?xml version="1.0" encoding="UTF-8" standalone="no"?>
<svg
   version="1.1"
   x="0px"
   y="0px"
   viewBox="0 0 512 512"
   enable-background="new 0 0 2000 2000"
   xml:space="preserve"
   id="svg2"
   width="512"
   height="512"
   xmlns="http://www.w3.org/2000/svg"
   xmlns:svg="http://www.w3.org/2000/svg"><defs
     id="defs2" /><path
     d="m 235.81836,50.990234 c -5.09751,-0.13272 -10.18462,1.513477 -14.30078,4.84375 L 120.58008,136.625 H 58.486328 c -12.177336,0 -22.019531,9.8429 -22.019531,22.01953 v 194.78516 c 0,12.17664 9.842195,22.01953 22.019531,22.01953 h 62.183592 l 100.84766,80.72461 c 3.964,3.21479 8.85286,4.84179 13.76367,4.84179 3.21446,0 6.49519,-0.7039 9.51172,-2.20117 7.64129,-3.65531 12.50781,-11.36241 12.50781,-19.83984 V 73.009766 c 0,-8.455451 -4.84539,-16.184601 -12.50781,-19.839844 -2.85662,-1.378986 -5.91796,-2.100083 -8.97461,-2.179688 z"
     style="display:none;opacity:1;stroke-width:0.70447"
     id="path38" /><path
     d="m 309.38477,83.263672 v 45.021488 45.80273 166.77148 46.16211 45.16993 C 394.89603,418.24229 457.70356,344.38567 457.73437,257.74414 457.71983,171.09005 394.90843,97.214817 309.38477,83.263672 Z"
     style="display:none;stroke-width:7.29136;stroke-linecap:square;stroke-linejoin:round"
     id="path39" /><path
     d="m 309.38477,217 126.16406,126.16406 c 14.09644,-25.46496 22.17458,-54.59734 22.18554,-85.41992 -0.0145,-86.654 -62.82603,-160.529337 -148.3496,-174.480468 v 45.021488 45.80273 z"
     style="stroke-width:7.29136;stroke-linecap:square;stroke-linejoin:round"
     id="path45" /><path
     d="m 333.95898,426.34375 -24.57421,-24.57422 v 30.42188 c 8.42836,-1.37489 16.62536,-3.3539 24.57421,-5.84766 z"
     style="stroke-width:7.29136;stroke-linecap:square;stroke-linejoin:round"
     id="path44" /><path
     d="M 257.30078,349.68555 47.353516,139.73828 c -6.491104,3.82661 -10.886719,10.81342 -10.886719,18.90625 v 194.78516 c 0,12.17663 9.842207,22.01953 22.019531,22.01953 h 62.183592 l 100.84766,80.72461 c 3.96399,3.21478 8.85286,4.84179 13.76367,4.84179 3.21446,0 6.49519,-0.7039 9.51172,-2.20117 7.64128,-3.6553 12.50781,-11.36242 12.50781,-19.83984 z"
     style="display:inline;opacity:1;stroke-width:0.70447"
     id="path43" /><path
     d="m 180.80469,88.419922 76.49609,76.496098 V 73.009766 c 0,-8.455443 -4.8454,-16.184605 -12.50781,-19.839844 -2.85662,-1.378985 -5.91796,-2.100083 -8.97461,-2.179688 -5.09751,-0.132719 -10.18463,1.513481 -14.30078,4.84375 z"
     style="display:inline;opacity:1;stroke-width:0.70447"
     id="path42" /><rect
     style="display:inline;opacity:1;fill:#000000;fill-opacity:1;stroke-width:0.858191;stroke-linecap:round;stroke-linejoin:round;stroke-dasharray:none"
     id="rect38"
     width="71.994133"
     height="576.4657"
     x="-35.997066"
     y="73.805824"
     ry="17.964291"
     transform="rotate(-45)" /></svg>
