<?xml version="1.0" encoding="UTF-8" standalone="no"?>
<svg
   version="1.1"
   x="0px"
   y="0px"
   viewBox="0 0 512 512"
   enable-background="new 0 0 2000 2000"
   xml:space="preserve"
   id="svg2"
   width="512"
   height="512"
   xmlns="http://www.w3.org/2000/svg"
   xmlns:svg="http://www.w3.org/2000/svg"><defs
     id="defs2" /><path
     d="m 235.81836,50.990234 c -5.09751,-0.13272 -10.18462,1.513477 -14.30078,4.84375 L 120.58008,136.625 H 58.486328 c -12.177336,0 -22.019531,9.8429 -22.019531,22.01953 v 194.78516 c 0,12.17664 9.842195,22.01953 22.019531,22.01953 h 62.183592 l 100.84766,80.72461 c 3.964,3.21479 8.85286,4.84179 13.76367,4.84179 3.21446,0 6.49519,-0.7039 9.51172,-2.20117 7.64129,-3.65531 12.50781,-11.36241 12.50781,-19.83984 V 73.009766 c 0,-8.455451 -4.84539,-16.184601 -12.50781,-19.839844 -2.85662,-1.378986 -5.91796,-2.100083 -8.97461,-2.179688 z"
     style="display:inline;opacity:1;stroke-width:0.70447"
     id="path1" /><rect
     style="opacity:0;fill:#000000;fill-opacity:1;stroke-width:0.858191;stroke-linecap:round;stroke-linejoin:round;stroke-dasharray:none"
     id="rect5"
     width="71.994133"
     height="576.4657"
     x="-35.997066"
     y="73.805824"
     ry="17.964291"
     transform="rotate(-45)" /><path
     d="M 309.38502,83.263029 V 128.28452 A 132.61248,132.61248 0 0 1 413.52954,257.74415 132.61248,132.61248 0 0 1 309.38502,387.02163 v 45.16985 A 176.81678,176.81678 0 0 0 457.73425,257.74415 176.81678,176.81678 0 0 0 309.38502,83.263029 Z"
     style="display:none;fill:#000000;fill-opacity:0.244037;stroke-width:14.5827;stroke-linecap:square;stroke-linejoin:round"
     id="path24" /><path
     d="m 309.38502,128.28452 v 45.80265 a 88.408169,88.408169 0 0 1 59.94168,83.65698 88.408169,88.408169 0 0 1 -59.94168,83.11432 v 46.16316 A 132.61248,132.61248 0 0 0 413.52954,257.74415 132.61248,132.61248 0 0 0 309.38502,128.28452 Z"
     style="display:inline;fill:#000000;fill-opacity:1;stroke-width:10.937;stroke-linecap:square;stroke-linejoin:round"
     id="path23" /><path
     d="m 309.38502,174.08717 v 166.7713 a 88.408169,88.408169 0 0 0 59.94168,-83.11432 88.408169,88.408169 0 0 0 -59.94168,-83.65698 z"
     style="fill:#000000;fill-opacity:1;stroke-width:7.29136;stroke-linecap:square;stroke-linejoin:round"
     id="path22" /></svg>
