<svg xmlns="http://www.w3.org/2000/svg" xmlns:xlink="http://www.w3.org/1999/xlink" version="1.1" width="1000" height="1000" viewBox="0 0 1000 1000" xml:space="preserve">
<desc>Created with Fabric.js 3.5.0</desc>
<defs>
</defs>
<rect x="0" y="0" width="100%" height="100%" fill="#ffffff"/>
<g transform="matrix(0 -1.5783 1.5783 0 500.0027 499.9951)" id="282739">
<path style="stroke: none; stroke-width: 1; stroke-dasharray: none; stroke-linecap: butt; stroke-dashoffset: 0; stroke-linejoin: miter; stroke-miterlimit: 4; is-custom-font: none; font-file-url: none; fill: rgb(0,0,0); fill-rule: nonzero; opacity: 1;" vector-effect="non-scaling-stroke" transform=" translate(-288, -256)" d="M 464 160 c 8.8 0 16 7.2 16 16 V 336 c 0 8.8 -7.2 16 -16 16 H 80 c -8.8 0 -16 -7.2 -16 -16 V 176 c 0 -8.8 7.2 -16 16 -16 H 464 z M 80 96 C 35.8 96 0 131.8 0 176 V 336 c 0 44.2 35.8 80 80 80 H 464 c 44.2 0 80 -35.8 80 -80 V 320 c 17.7 0 32 -14.3 32 -32 V 224 c 0 -17.7 -14.3 -32 -32 -32 V 176 c 0 -44.2 -35.8 -80 -80 -80 H 80 z m 208 96 H 96 V 320 H 288 V 192 z" stroke-linecap="round"/>
</g>
</svg>