<?xml version="1.0" encoding="UTF-8" standalone="no"?>
<svg
   version="1.1"
   width="1000"
   height="1000"
   viewBox="0 0 1000 1000"
   xml:space="preserve"
   id="svg1"
   sodipodi:docname="battery-full.svg"
   inkscape:export-filename="battery-full.svg"
   inkscape:export-xdpi="96"
   inkscape:export-ydpi="96"
   inkscape:version="1.3.2 (091e20ef0f, 2023-11-25, custom)"
   xmlns:inkscape="http://www.inkscape.org/namespaces/inkscape"
   xmlns:sodipodi="http://sodipodi.sourceforge.net/DTD/sodipodi-0.dtd"
   xmlns="http://www.w3.org/2000/svg"
   xmlns:svg="http://www.w3.org/2000/svg"><sodipodi:namedview
   id="namedview1"
   pagecolor="#ffffff"
   bordercolor="#000000"
   borderopacity="0.25"
   inkscape:showpageshadow="2"
   inkscape:pageopacity="0.0"
   inkscape:pagecheckerboard="0"
   inkscape:deskcolor="#d1d1d1"
   inkscape:zoom="0.281"
   inkscape:cx="501.77936"
   inkscape:cy="498.22064"
   inkscape:window-width="780"
   inkscape:window-height="829"
   inkscape:window-x="0"
   inkscape:window-y="0"
   inkscape:window-maximized="1"
   inkscape:current-layer="svg1" />
<desc
   id="desc1">Created with Fabric.js 3.5.0</desc>
<defs
   id="defs1">
</defs>

<g
   transform="matrix(0 -1.5783 1.5783 0 500.0027 499.9951)"
   id="884531">
<path
   style="stroke: none; stroke-width: 1; stroke-dasharray: none; stroke-linecap: butt; stroke-dashoffset: 0; stroke-linejoin: miter; stroke-miterlimit: 4; is-custom-font: none; font-file-url: none; fill: rgb(0,0,0); fill-rule: nonzero; opacity: 1;"
   vector-effect="non-scaling-stroke"
   transform=" translate(-288, -256)"
   d="M 464 160 c 8.8 0 16 7.2 16 16 V 336 c 0 8.8 -7.2 16 -16 16 H 80 c -8.8 0 -16 -7.2 -16 -16 V 176 c 0 -8.8 7.2 -16 16 -16 H 464 z M 80 96 C 35.8 96 0 131.8 0 176 V 336 c 0 44.2 35.8 80 80 80 H 464 c 44.2 0 80 -35.8 80 -80 V 320 c 17.7 0 32 -14.3 32 -32 V 224 c 0 -17.7 -14.3 -32 -32 -32 V 176 c 0 -44.2 -35.8 -80 -80 -80 H 80 z m 368 96 H 96 V 320 H 448 V 192 z"
   stroke-linecap="round"
   id="path1" />
</g>
</svg>
