<?xml version="1.0" encoding="UTF-8" standalone="no"?>
<svg
   version="1.1"
   width="1000"
   height="1000"
   viewBox="0 0 1000 1000"
   xml:space="preserve"
   id="svg1"
   xmlns="http://www.w3.org/2000/svg"
   xmlns:svg="http://www.w3.org/2000/svg">
<desc
   id="desc1">Created with Fabric.js 3.5.0</desc>
<defs
   id="defs1" />

<g
   transform="matrix(0,-1.5783,1.5783,0,500.0027,499.9951)"
   id="648668">
<path
   style="opacity:1;fill:#63e6be;fill-rule:nonzero;stroke:none;stroke-width:1;stroke-linecap:butt;stroke-linejoin:miter;stroke-miterlimit:4;stroke-dasharray:none;stroke-dashoffset:0"
   vector-effect="non-scaling-stroke"
   transform="translate(-288,-256)"
   d="m 464,160 c 8.8,0 16,7.2 16,16 v 160 c 0,8.8 -7.2,16 -16,16 H 80 c -8.8,0 -16,-7.2 -16,-16 V 176 c 0,-8.8 7.2,-16 16,-16 z M 80,96 C 35.8,96 0,131.8 0,176 v 160 c 0,44.2 35.8,80 80,80 h 384 c 44.2,0 80,-35.8 80,-80 v -16 c 17.7,0 32,-14.3 32,-32 v -64 c 0,-17.7 -14.3,-32 -32,-32 v -16 c 0,-44.2 -35.8,-80 -80,-80 z m 272,96 H 96 v 128 h 256 z"
   stroke-linecap="round"
   id="path1" />
</g>
</svg>
