<?xml version="1.0" encoding="UTF-8" standalone="no"?>
<svg
   version="1.1"
   x="0px"
   y="0px"
   viewBox="0 0 512 512"
   enable-background="new 0 0 10 10"
   xml:space="preserve"
   id="svg2"
   width="512"
   height="512"
   xmlns="http://www.w3.org/2000/svg"
   xmlns:svg="http://www.w3.org/2000/svg"><defs
     id="defs2" /><path
     d="M 367.99905,380.84124 144.00307,240.91914 v 63.44744 167.78589 c 0,5.02593 -0.1649,13.48988 2.41248,17.73151 2.95491,4.8635 8.30279,7.95511 13.99221,8.08171 4.9617,0.11054 12.17295,-4.24153 16.52528,-6.75486 z m -168.26839,-76.35404 94.80929,54.64199 -94.80929,54.64199 z"
     style="opacity:0;fill:#d60000;fill-opacity:1;stroke-width:74.8411"
     id="path19" /><path
     d="m 156.78905,12.701371 c -3.98344,0.44961 -7.63031,2.56509 -10.01166,5.78988 -2.93478,3.97424 -2.77433,12.58499 -2.77433,17.61089 v 71.891009 l 55.7276,34.73928 V 98.584591 l 94.80929,54.762619 -40.40854,23.40076 53.43577,33.29181 66.58362,-38.35795 c 4.35275,-2.51259 11.7407,-6.68213 13.99221,-11.09727 2.30656,-4.52314 2.30594,-9.95124 0,-14.4747 -2.25078,-4.41526 -9.63989,-8.58392 -13.99221,-11.09727 L 173.43496,19.214991 c -4.35233,-2.51335 -11.7365,-7.06781 -16.64591,-6.51362 z"
     style="display:inline;opacity:0;fill:#d60000;fill-opacity:1;stroke-width:74.8411"
     id="path18" /><rect
     style="display:inline;opacity:0;fill:#000000;fill-opacity:1;stroke:none;stroke-width:36.7241;stroke-linecap:round;stroke-linejoin:round;stroke-dasharray:none;stroke-opacity:1;paint-order:normal"
     id="rect12"
     width="76.144966"
     height="513.64935"
     x="-109.83495"
     y="87.927986"
     ry="8.5587654"
     transform="rotate(-58.019189)" /><path
     style="opacity:1;fill:#000000;stroke-width:1.23591"
     d="m 145.33922,256.70492 c 0,-96.87674 0.20566,-181.383719 0.50457,-223.172169 0.10931,-15.35625 11.44984,-21.77432 24.9041,-14.07651 49.22955,28.16653 159.6106,92.249459 208.21321,120.879809 13.1836,7.76606 13.12764,21.00223 -0.21616,28.89067 -15.81372,9.34815 -38.10393,22.35486 -62.70217,36.55838 -47.6642,27.52222 -86.66217,50.37868 -86.66217,50.79213 0,0.41316 39.0141,23.24492 86.69799,50.73662 24.67065,14.22363 47.03552,27.23239 62.88612,36.55385 13.31137,7.82818 13.21244,21.00391 -0.14767,28.8618 -48.78121,28.69053 -158.77206,92.60067 -207.72487,120.69221 -13.31726,7.6421 -25.08347,1.15744 -25.25976,-14.30007 -0.37572,-32.94386 -0.49321,-99.4794 -0.49319,-222.41672 z m 108.591,125.29092 c 21.31938,-12.29573 38.71145,-22.88267 38.64904,-23.52648 -0.0947,-0.97668 -72.12056,-43.45254 -86.9898,-51.30053 l -4.63463,-2.44619 v 53.8776 53.87758 l 7.10644,-4.06305 c 3.90854,-2.23466 24.54957,-14.12319 45.86895,-26.41893 z M 250.2179,180.2776 c 23.35604,-13.51825 42.41659,-25.10156 42.35673,-25.7407 -0.0908,-0.97028 -72.16699,-43.47095 -86.98517,-51.29201 l -4.63462,-2.4462 v 53.81863 53.81862 l 3.39877,-1.78989 c 1.86931,-0.9844 22.50825,-12.85024 45.86429,-26.36845 z"
     id="path1" /><path
     d="m 327.125,220.33398 c -0.7815,0.45154 -1.2195,0.71587 -2.00586,1.16993 -11.58681,6.69044 -19.66325,11.42466 -29.74219,17.28125 a 49.906921,49.906921 0 0 1 3.64649,17.6289 49.906921,49.906921 0 0 1 -3.83008,17.79883 c 10.1372,5.88161 18.28288,10.64971 29.95117,17.37695 0.69976,0.40345 1.0892,0.63568 1.78516,1.03711 a 86.01815,86.01815 0 0 0 8.20508,-36.21289 86.01815,86.01815 0 0 0 -8.00977,-36.08008 z"
     style="fill:#000000;fill-opacity:1;stroke-width:51.0857;stroke-linecap:round;paint-order:stroke fill markers"
     id="path29" /><path
     d="m 380.41211,189.26562 c -10.49483,6.17931 -24.03463,14.04741 -37.94922,22.125 a 101.55159,101.55159 0 0 1 10.91016,45.03125 101.55159,101.55159 0 0 1 -10.99805,45.1836 c 13.8148,8.00019 27.17161,15.74561 37.63867,21.8789 a 145.34513,145.34513 0 0 0 17.15235,-67.0625 145.34513,145.34513 0 0 0 -16.75391,-67.15625 z"
     style="fill:#000000;fill-opacity:1;stroke-width:60.3109;stroke-linecap:round;paint-order:stroke fill markers"
     id="path28" /></svg>
