<svg xmlns="http://www.w3.org/2000/svg" fill="none" x="0px" y="0px" viewBox="0 0 24 30"><path d="M11.614 2.057a.814.814 0 0 0-.505.396l-.089.167-.011 3.689-.011 3.69-2.237-1.678C7.53 7.398 6.446 6.603 6.352 6.554c-.213-.111-.554-.121-.741-.021-.337.178-.651.659-.651.996 0 .253.072.415.271.611.089.088 1.27.988 2.624 2s2.462 1.849 2.462 1.86c0 .011-1.107.848-2.46 1.86s-2.534 1.912-2.624 2c-.201.196-.273.358-.273.611 0 .491.547 1.086 1 1.088.077 0 .232-.043.345-.095.112-.052 1.215-.853 2.45-1.78L11 13.999v3.571c0 2.336.015 3.622.042 3.719.057.206.264.466.494.621.226.152.475.173.753.062.206-.082 6.322-4.659 6.487-4.855a1.03 1.03 0 0 0 .263-.648c.001-.25-.071-.413-.272-.609-.09-.088-1.271-.988-2.624-2-1.353-1.012-2.46-1.849-2.46-1.86 0-.011 1.108-.848 2.461-1.86 1.354-1.012 2.525-1.91 2.603-1.995.188-.206.291-.444.292-.676a.76.76 0 0 0-.244-.586c-.074-.075-1.53-1.182-3.235-2.461-2.122-1.591-3.152-2.34-3.265-2.373a1.223 1.223 0 0 0-.681.008m4.658 5.402c.042.038-.279.297-1.61 1.295L13 10V4.999l1.61 1.206c.885.663 1.633 1.227 1.662 1.254m0 9c.042.038-.279.297-1.61 1.295L13 19V13.999l1.61 1.206c.885.663 1.633 1.227 1.662 1.254" fill-rule="evenodd" fill="#000"/><text x="0" y="39" fill="#000000" font-size="5px" font-weight="bold" font-family="'Helvetica Neue', Helvetica, Arial-Unicode, Arial, Sans-serif">Created by Avorice-Studio</text><text x="0" y="44" fill="#000000" font-size="5px" font-weight="bold" font-family="'Helvetica Neue', Helvetica, Arial-Unicode, Arial, Sans-serif">from the Noun Project</text></svg>