<?xml version="1.0" encoding="UTF-8" standalone="no"?>
<svg
   viewBox="0 0 512 512"
   version="1.1"
   id="svg1"
   width="512"
   height="512"
   sodipodi:docname="brightness-full.svg"
   inkscape:version="1.3.2 (091e20ef0f, 2023-11-25, custom)"
   xmlns:inkscape="http://www.inkscape.org/namespaces/inkscape"
   xmlns:sodipodi="http://sodipodi.sourceforge.net/DTD/sodipodi-0.dtd"
   xmlns="http://www.w3.org/2000/svg"
   xmlns:svg="http://www.w3.org/2000/svg">
  <sodipodi:namedview
     id="namedview1"
     pagecolor="#ffffff"
     bordercolor="#000000"
     borderopacity="0.25"
     inkscape:showpageshadow="2"
     inkscape:pageopacity="0.0"
     inkscape:pagecheckerboard="0"
     inkscape:deskcolor="#d1d1d1"
     inkscape:zoom="1.0898437"
     inkscape:cx="340.87455"
     inkscape:cy="193.14695"
     inkscape:window-width="1536"
     inkscape:window-height="864"
     inkscape:window-x="0"
     inkscape:window-y="0"
     inkscape:window-maximized="1"
     inkscape:current-layer="svg1" />
  <defs
     id="defs1" />
  <!--!Font Awesome Free 6.5.2 by @fontawesome - https://fontawesome.com License - https://fontawesome.com/license/free Copyright 2024 Fonticons, Inc.-->
  <path
     d="m 84.563004,61.920459 c -26.89656,0 -48.7643,21.867747 -48.7643,48.764301 V 330.1241 c 0,26.89655 21.86774,48.76429 48.7643,48.76429 H 229.33201 l -0.53336,24.38215 h -71.08921 c -13.48637,0 -24.38214,10.89578 -24.38214,24.38215 0,13.48638 10.89577,24.38215 24.38214,24.38215 h 195.0572 c 13.48637,0 24.38214,-10.89577 24.38214,-24.38215 0,-13.48637 -10.89577,-24.38215 -24.38214,-24.38215 h -71.08921 l -0.53336,-24.38215 h 144.76901 c 26.89656,0 48.7643,-21.86774 48.7643,-48.76429 V 110.68476 c 0,-26.896554 -21.86774,-48.764301 -48.7643,-48.764301 z M 432.00862,117.05096 V 322.234 a 12.461744,12.461744 0 0 1 -12.46175,12.46175 H 92.453093 A 12.461744,12.461744 0 0 1 79.991348,322.234 V 117.05096 A 12.461744,12.461744 0 0 1 92.453093,104.58921 H 419.54687 a 12.461744,12.461744 0 0 1 12.46175,12.46175 z"
     id="path1"
     style="stroke-width:0.761942" />
  <rect
     style="fill:#000000;stroke:none;stroke-width:55.7265;stroke-linecap:round;stroke-linejoin:round;stroke-opacity:0.189204;paint-order:stroke markers fill"
     id="rect1"
     width="299.13443"
     height="177.22366"
     x="106.43278"
     y="-308.25433"
     ry="6.92418"
     transform="scale(1,-1)" />
</svg>
