<?xml version="1.0" encoding="UTF-8" standalone="no"?>
<svg
   version="1.1"
   x="0px"
   y="0px"
   viewBox="0 0 512 512"
   xml:space="preserve"
   id="svg3"
   width="512"
   height="512"
   sodipodi:docname="cpu.svg"
   inkscape:version="1.3.2 (091e20ef0f, 2023-11-25, custom)"
   xmlns:inkscape="http://www.inkscape.org/namespaces/inkscape"
   xmlns:sodipodi="http://sodipodi.sourceforge.net/DTD/sodipodi-0.dtd"
   xmlns="http://www.w3.org/2000/svg"
   xmlns:svg="http://www.w3.org/2000/svg"><sodipodi:namedview
     id="namedview1"
     pagecolor="#ffffff"
     bordercolor="#000000"
     borderopacity="0.25"
     inkscape:showpageshadow="2"
     inkscape:pageopacity="0.0"
     inkscape:pagecheckerboard="0"
     inkscape:deskcolor="#d1d1d1"
     showguides="true"
     inkscape:zoom="0.5"
     inkscape:cx="463"
     inkscape:cy="163"
     inkscape:window-width="917"
     inkscape:window-height="828"
     inkscape:window-x="0"
     inkscape:window-y="0"
     inkscape:window-maximized="1"
     inkscape:current-layer="svg3" /><defs
     id="defs3"><inkscape:path-effect
       effect="fillet_chamfer"
       id="path-effect7"
       is_visible="true"
       lpeversion="1"
       nodesatellites_param="F,0,0,1,0,0,0,1 @ F,0,0,1,0,0,0,1 @ F,0,0,1,0,0,0,1 @ F,0,0,1,0,0,0,1 @ F,0,0,1,0,0,0,1 @ F,0,0,1,0,0,0,1 @ F,0,0,1,0,0,0,1 @ F,0,0,1,0,0,0,1 | F,0,0,1,0,0,0,1 @ F,0,0,1,0,0,0,1 @ F,0,0,1,0,0,0,1 @ F,0,0,1,0,0,0,1 @ F,0,0,1,0,0,0,1 @ F,0,0,1,0,0,0,1 @ F,0,0,1,0,0,0,1 @ F,0,0,1,0,0,0,1"
       radius="0"
       unit="px"
       method="auto"
       mode="F"
       chamfer_steps="1"
       flexible="false"
       use_knot_distance="true"
       apply_no_radius="true"
       apply_with_radius="true"
       only_selected="false"
       hide_knots="false" /></defs><path
     d="m 151.09766,125.97656 c -13.91681,0 -25.1211,11.20429 -25.1211,25.1211 v 209.80468 c 0,13.91681 11.20429,25.1211 25.1211,25.1211 h 209.80468 c 13.91681,0 25.1211,-11.20429 25.1211,-25.1211 V 151.09766 c 0,-13.91681 -11.20429,-25.1211 -25.1211,-25.1211 z m 38.36523,44.94531 h 14.8457 33.36328 33.36133 v 33.36329 h -33.36133 -14.84765 c -10.25755,0 -18.51563,8.25807 -18.51563,18.51562 v 14.8457 33.36329 H 170.94727 V 237.64648 204.28516 189.4375 c 0,-10.25752 8.2581,-18.51563 18.51562,-18.51563 z"
     style="stroke-width:37.4061;stroke-linecap:round;stroke-linejoin:round;stroke-opacity:0.189204;paint-order:stroke markers fill"
     id="path27" /><path
     d="M 48.626953,23.525391 C 34.76378,23.524945 23.524945,34.76378 23.525391,48.626953 V 463.37305 c -4.46e-4,13.86334 11.238223,25.102 25.101562,25.10156 H 463.37305 c 13.86328,4.4e-4 25.102,-11.23828 25.10156,-25.10156 V 48.626953 C 488.47505,34.763725 477.23628,23.524945 463.37305,23.525391 Z M 94.333984,69.232422 H 417.66602 c 13.86325,-4.46e-4 25.102,11.238306 25.10156,25.101562 V 417.66602 c 4.4e-4,13.86331 -11.23825,25.102 -25.10156,25.10156 H 94.333984 c -13.863367,4.4e-4 -25.102008,-11.2382 -25.101562,-25.10156 V 94.333984 c -4.46e-4,-13.8632 11.238362,-25.102008 25.101562,-25.101562 z"
     style="fill:#000000;stroke-width:41.4204;stroke-linecap:round;stroke-linejoin:round;paint-order:stroke markers fill;fill-opacity:1"
     id="path17" /></svg>
