<?xml version="1.0" encoding="UTF-8" standalone="no"?>
<svg
   version="1.1"
   viewBox="-5 -10 512 512"
   id="svg4"
   width="512"
   height="512"
   xmlns="http://www.w3.org/2000/svg"
   xmlns:svg="http://www.w3.org/2000/svg">
  <defs
     id="defs4" />
  <g
     id="g4"
     transform="matrix(6.0702214,0,0,6.0702214,-45.145985,-113.51899)">
    <path
       d="m 20.655676,27.98246 c -5.1406,0 -9.3672,4.250001 -9.3672,9.3906 v 34.371 c 0,5.1406 4.2266,9.3672 9.3672,9.3672 h 40.625 v -0.0039 c 0.82812,0.0039 1.625,-0.32031 2.2148,-0.90625 0.58594,-0.58203 0.91797,-1.3789 0.92187,-2.206999 0.0039,-0.83203 -0.32812,-1.6328 -0.91406,-2.2227 -0.58984,-0.58594 -1.3906,-0.91797 -2.2227,-0.914061 h -40.625 c -1.7852,0 -3.1133,-1.3281 -3.1133,-3.1133 v -34.371 c 0,-1.7852 1.3281,-3.1367 3.1133,-3.1367 h 34.371 v -0.0039 c 0.83203,0.0039 1.6289,-0.32031 2.2148,-0.90625 0.58984,-0.58203 0.92188,-1.3789 0.92578,-2.207 0,-0.83203 -0.32812,-1.6328 -0.91797,-2.2227 -0.58984,-0.58594 -1.3867,-0.91797 -2.2227,-0.91406 z"
       id="path1" />
    <path
       d="m 39.409676,84.24846 c -0.82812,-0.0039 -1.625,0.32031 -2.2109,0.90625 -0.58984,0.58203 -0.92187,1.378901 -0.92578,2.207 0.0039,0.82812 0.33594,1.6211 0.92578,2.207 0.58594,0.58203 1.3828,0.91016 2.2109,0.90625 h 18.758 c 1.7148,-0.0039 3.1055,-1.3945 3.1133,-3.1133 -0.0078,-1.7188 -1.3984,-3.109399 -3.1133,-3.1133 z"
       id="path2" />
    <path
       d="m 70.671676,27.97846 c -0.83594,0 -1.6367,0.32812 -2.2266,0.91797 -0.58594,0.58984 -0.91797,1.3906 -0.91016,2.226601 v 3.113299 c -1.7266,0.0078 -3.1211,1.4102 -3.1133,3.1367 v 10.449001 c 0,4.3828 3.4688,8.0117 7.793,8.2656 v 31.273 c 0.0039,0.828119 0.33594,1.621099 0.92578,2.207 0.58594,0.58203 1.3828,0.910159 2.2109,0.90625 1.7188,-0.0078 3.1055,-1.398401 3.1133,-3.113301 V 56.087581 c 4.3281,-0.25391 7.8203,-3.8789 7.8203,-8.2656 v -10.449 c 0,-0.83203 -0.32812,-1.6328 -0.91797,-2.2227 -0.58984,-0.58984 -1.3867,-0.91797 -2.2227,-0.91406 v -3.1133 c 0.0078,-0.82812 -0.32031,-1.6289 -0.90234,-2.2188 -0.58594,-0.58984 -1.3789,-0.92188 -2.207,-0.92578 z m 0,12.508 h 9.3633 v 7.335901 c 0,1.168 -0.88281,2.027299 -2.0508,2.027299 h -5.2852 c -1.168,0 -2.0273,-0.855469 -2.0273,-2.027299 z"
       id="path3" />
  </g>
</svg>
