<?xml version="1.0" encoding="UTF-8" standalone="no"?>
<svg
   viewBox="0 0 512 511.99999"
   version="1.1"
   x="0px"
   y="0px"
   id="svg3"
   width="512"
   height="512"
   sodipodi:docname="ram.svg"
   inkscape:version="1.3.2 (091e20ef0f, 2023-11-25, custom)"
   xmlns:inkscape="http://www.inkscape.org/namespaces/inkscape"
   xmlns:sodipodi="http://sodipodi.sourceforge.net/DTD/sodipodi-0.dtd"
   xmlns="http://www.w3.org/2000/svg"
   xmlns:svg="http://www.w3.org/2000/svg">
  <sodipodi:namedview
     id="namedview1"
     pagecolor="#ffffff"
     bordercolor="#000000"
     borderopacity="0.25"
     inkscape:showpageshadow="2"
     inkscape:pageopacity="0.0"
     inkscape:pagecheckerboard="0"
     inkscape:deskcolor="#d1d1d1"
     inkscape:zoom="0.4609375"
     inkscape:cx="335.18644"
     inkscape:cy="239.72881"
     inkscape:window-width="1536"
     inkscape:window-height="864"
     inkscape:window-x="0"
     inkscape:window-y="0"
     inkscape:window-maximized="1"
     inkscape:current-layer="g2" />
  <defs
     id="defs3" />
  <g
     transform="matrix(72.027003,0,0,72.027003,3609.7453,-5448.9062)"
     id="g2">
    <g
       id="g1"
       transform="translate(0,-0.16377071)">
      <path
         d="m -49.472491,76.904134 c -0.146321,-5.57e-4 -0.265317,0.117744 -0.265617,0.264066 v 1.058334 c 5.85e-4,0.146119 0.119497,0.264106 0.265617,0.263549 0.149259,10e-7 0.263549,0.116358 0.26355,0.265617 0,0.14926 -0.114291,0.264067 -0.26355,0.264067 -0.146928,-5.6e-4 -0.266177,0.118689 -0.265617,0.265617 v 1.058333 c 5.84e-4,0.14612 0.119497,0.264107 0.265617,0.26355 h 5.820317 c 0.14612,5.57e-4 0.265032,-0.117431 0.265616,-0.26355 v -1.058333 c 5.6e-4,-0.146927 -0.118689,-0.266177 -0.265616,-0.265617 -0.149259,0 -0.264067,-0.114807 -0.264067,-0.264067 10e-7,-0.149258 0.114809,-0.265617 0.264067,-0.265617 0.146119,5.57e-4 0.265031,-0.11743 0.265616,-0.263549 V 77.1682 c -3e-4,-0.146321 -0.119296,-0.264623 -0.265616,-0.264066 z m 1.320333,1.056783 c 0.146934,-5.75e-4 0.266192,0.118683 0.265617,0.265617 v 1.05885 c -5.7e-4,0.146125 -0.119491,0.264121 -0.265617,0.263549 -0.145319,-5.67e-4 -0.262983,-0.118231 -0.26355,-0.263549 v -1.05885 c -5.72e-4,-0.146126 0.117424,-0.265047 0.26355,-0.265617 z m 1.0604,0 c 0.146126,5.7e-4 0.264122,0.119491 0.26355,0.265617 v 1.05885 c -5.67e-4,0.145318 -0.118231,0.262982 -0.26355,0.263549 -0.145319,-5.67e-4 -0.262983,-0.118231 -0.26355,-0.263549 v -1.05885 c -5.72e-4,-0.146126 0.117424,-0.265047 0.26355,-0.265617 z m 1.058334,0 h 1.058333 c 0.14612,5.84e-4 0.264107,0.119497 0.26355,0.265617 v 1.05885 c -5.81e-4,0.145312 -0.118237,0.262968 -0.26355,0.263549 h -1.058333 c -0.146321,8.44e-4 -0.26555,-0.117228 -0.266134,-0.263549 v -1.05885 c -5.63e-4,-0.147131 0.119004,-0.266466 0.266134,-0.265617 z m 0.263549,0.640732 v 0.307069 c 0,0.06133 0.04972,0.111049 0.111049,0.111049 h 0.307069 c 0.06133,0 0.111049,-0.04972 0.111049,-0.111049 v -0.307069 c 0,-0.06133 -0.04972,-0.111049 -0.111049,-0.111049 h -0.307069 c -0.06133,0 -0.111049,0.04972 -0.111049,0.111049 z"
         fill="#000000"
         stroke="none"
         id="path1" />
      <rect
         style="fill:#000000;fill-opacity:1;stroke:none;stroke-width:0.497841;stroke-linecap:round;stroke-linejoin:round;paint-order:stroke markers fill"
         id="rect1"
         width="6.3515534"
         height="0.87710971"
         x="-49.73811"
         y="80.956505"
         ry="0.25016806" />
    </g>
  </g>
</svg>
