<?xml version="1.0" encoding="UTF-8" standalone="no"?>
<svg
   version="1.1"
   x="0px"
   y="0px"
   viewBox="0 0 512 512"
   enable-background="new 0 0 2000 2000"
   xml:space="preserve"
   id="svg2"
   sodipodi:docname="volume-mute.svg"
   width="512"
   height="512"
   inkscape:version="1.3.2 (091e20ef0f, 2023-11-25, custom)"
   inkscape:export-filename="volume-low.svg"
   inkscape:export-xdpi="96"
   inkscape:export-ydpi="96"
   xmlns:inkscape="http://www.inkscape.org/namespaces/inkscape"
   xmlns:sodipodi="http://sodipodi.sourceforge.net/DTD/sodipodi-0.dtd"
   xmlns="http://www.w3.org/2000/svg"
   xmlns:svg="http://www.w3.org/2000/svg"><defs
     id="defs2" /><sodipodi:namedview
     id="namedview2"
     pagecolor="#ffffff"
     bordercolor="#000000"
     borderopacity="0.25"
     inkscape:showpageshadow="2"
     inkscape:pageopacity="0.0"
     inkscape:pagecheckerboard="0"
     inkscape:deskcolor="#d1d1d1"
     showguides="true"
     inkscape:zoom="1.297496"
     inkscape:cx="203.8542"
     inkscape:cy="334.8758"
     inkscape:window-width="1536"
     inkscape:window-height="864"
     inkscape:window-x="0"
     inkscape:window-y="0"
     inkscape:window-maximized="1"
     inkscape:current-layer="svg2" /><path
     d="m 235.81836,50.990234 c -5.09753,-0.132721 -10.1846,1.51346 -14.30078,4.84375 L 120.58008,136.625 H 58.486328 c -12.177397,0 -22.019531,9.84284 -22.019531,22.01953 v 194.78516 c 0,12.1767 9.842134,22.01953 22.019531,22.01953 h 62.183592 l 100.84766,80.72461 c 3.96402,3.21481 8.85284,4.84179 13.76367,4.84179 3.21448,0 6.49518,-0.7039 9.51172,-2.20117 7.64133,-3.65533 12.50781,-11.36237 12.50781,-19.83984 V 73.009766 c 0,-8.455493 -4.84535,-16.184583 -12.50781,-19.839844 -2.85663,-1.378993 -5.91794,-2.100083 -8.97461,-2.179688 z M 192.26562,162.24023 v 187.56836 l -48.95117,-39.17773 c -2.54225,-2.04268 -5.65009,-3.13867 -8.92187,-3.13867 H 101.50195 V 204.60156 h 32.86133 c 3.24003,0 6.3792,-1.09922 8.91992,-3.14062 l 48.02735,-38.45703 z"
     style="display:inline;opacity:1;stroke-width:0.70447"
     id="path8" /><path
     d="m 315.69609,118.73973 c -5.63153,0 -11.26208,2.15222 -15.56641,6.45703 -8.61002,8.60967 -8.61002,22.52691 0,31.13672 26.6212,26.62154 41.28711,62.02768 41.28711,99.70312 0,37.67552 -14.66591,73.08283 -41.28711,99.72656 -8.61002,8.60968 -8.61002,22.52698 0,31.13672 4.29304,4.29375 9.92995,6.45118 15.56641,6.45118 5.63717,0 11.27658,-2.13546 15.57031,-6.45118 34.96705,-34.96717 54.1875,-81.42926 54.1875,-130.86328 0,-49.43388 -19.22045,-95.89471 -54.1875,-130.83984 -4.305,-4.30481 -9.93949,-6.45703 -15.57031,-6.45703 z"
     style="display:inline;opacity:1;stroke-width:0.704"
     id="path4" /><path
     d="m 379.48656,54.925294 c -5.63152,0 -11.26068,2.15419 -15.56641,6.458986 -8.60932,8.60974 -8.60932,22.52698 0,31.13672 90.14884,90.17004 90.14884,236.86302 0,327.0332 -8.60932,8.60959 -8.60932,22.52713 0,31.13672 4.29445,4.29382 9.92924,6.45117 15.56641,6.45117 5.63787,0 11.25402,-2.15735 15.57031,-6.45117 69.92249,-69.9369 94.27929,-168.46747 73.07229,-258.32617 -0.047,-0.1982 -0.094,-0.3976 -0.1407,-0.59571 -0.096,-0.40507 -0.1945,-0.81013 -0.2929,-1.21484 -11.51733,-47.37032 -35.7295,-92.25309 -72.63869,-129.16992 -4.30503,-4.304796 -9.93878,-6.458986 -15.57031,-6.458986 z"
     style="display:inline;opacity:0.25;stroke-width:0.704"
     id="path3" /><rect
     style="opacity:0;fill:#000000;fill-opacity:1;stroke-width:0.858191;stroke-linecap:round;stroke-linejoin:round;stroke-dasharray:none"
     id="rect5"
     width="71.994133"
     height="576.4657"
     x="-35.997066"
     y="73.805824"
     ry="17.964291"
     transform="rotate(-45)"
     sodipodi:type="rect" /><path
     d="m 257.30078,333.56445 -44.03906,-44.04101 v 103.67187 l -71.12305,-56.91992 c -3.91894,-3.14884 -8.72039,-4.84375 -13.76367,-4.84375 H 80.505859 V 180.70898 H 104.44727 L 60.363281,136.625 h -1.876953 c -12.177446,0 -22.019531,9.84279 -22.019531,22.01953 v 194.78516 c 0,12.17675 9.842085,22.01953 22.019531,22.01953 h 62.183592 l 100.84766,80.72461 c 3.96403,3.21482 8.85282,4.84179 13.76367,4.84179 3.2145,0 6.49517,-0.7039 9.51172,-2.20117 7.64136,-3.65534 12.50781,-11.36234 12.50781,-19.83984 z"
     style="display:inline;opacity:0;stroke-width:0.70447"
     id="path20" /><path
     d="m 171.84961,95.587891 31.34766,31.347659 10.06445,-8.0586 V 137 l 44.03906,44.03906 V 73.009766 c 0,-8.455527 -4.84532,-16.184569 -12.50781,-19.839844 -2.85664,-1.378999 -5.91792,-2.100083 -8.97461,-2.179688 -5.09755,-0.132721 -10.18459,1.513447 -14.30078,4.84375 z"
     style="display:inline;opacity:0;stroke-width:0.70447"
     id="path15" /><path
     d="m 316.9668,393.23047 -23.17188,-23.17383 c -0.35136,6.05076 1.7024,12.21231 6.33399,16.84375 4.29303,4.29375 9.92995,6.45117 15.5664,6.45117 0.42572,0 0.84633,-0.0967 1.27149,-0.12109 z"
     style="display:inline;opacity:0;stroke-width:0.704"
     id="path19" /><path
     d="m 341.11523,264.85352 38.29102,38.29101 c 3.96775,-15.19344 6.04687,-30.98624 6.04687,-47.10742 0,-49.43383 -19.22048,-95.89475 -54.1875,-130.83984 -4.30499,-4.30481 -9.93949,-6.45704 -15.57031,-6.45704 -5.63152,0 -11.26208,2.15223 -15.5664,6.45704 -8.61002,8.60966 -8.61002,22.52691 0,31.13671 26.62117,26.62152 41.28711,62.02773 41.28711,99.70313 0,2.95609 -0.12152,5.89138 -0.30079,8.81641 z"
     style="display:inline;opacity:0;stroke-width:0.704"
     id="path16" /><path
     d="m 380.75781,457.01953 -23.17187,-23.16992 c -0.35076,6.05017 1.70326,12.21093 6.33398,16.8418 4.29445,4.29381 9.92924,6.45117 15.56641,6.45117 0.4262,0 0.84608,-0.0984 1.27148,-0.12305 z"
     style="display:inline;opacity:0;stroke-width:0.704"
     id="path18" /><path
     d="m 415.92187,339.66016 33.48633,33.48437 c 26.59304,-56.71657 32.90708,-120.66851 18.72071,-180.7793 -0.047,-0.1982 -0.0939,-0.39759 -0.14063,-0.5957 -0.096,-0.40507 -0.19457,-0.81013 -0.29297,-1.21484 -11.51732,-47.37028 -35.72952,-92.253131 -72.63867,-129.169924 -4.30503,-4.304792 -9.93879,-6.458985 -15.57031,-6.458985 -5.63152,0 -11.26068,2.154193 -15.56641,6.458985 -8.60931,8.609731 -8.60931,22.526987 0,31.136718 66.69172,66.707406 83.98683,164.332466 52.00195,247.138676 z"
     style="display:inline;opacity:0;stroke-width:0.704"
     id="path17" /></svg>
