<?xml version="1.0" encoding="UTF-8" standalone="no"?>
<!-- Created with Inkscape (http://www.inkscape.org/) -->

<svg
   width="512"
   height="512"
   viewBox="0 0 512 512"
   version="1.1"
   id="svg1"
   xml:space="preserve"
   xmlns="http://www.w3.org/2000/svg"
   xmlns:svg="http://www.w3.org/2000/svg"><defs
     id="defs1" /><g
     id="layer1"
     transform="translate(3.7742813,-2.08466)"
     style="opacity:0"><g
       id="g1"
       transform="translate(202.22197,208.07466)"><path
         d="M 251.72623,-32.401388 C 224.64035,-59.21256 193.37896,-80.145052 159.31559,-94.100047 125.25221,-108.32975 88.112149,-115.85665 49.873265,-115.85665 c -76.203063,0 -147.681207,29.88786 -201.578255,83.510203 l -19.83367,19.833674 c -2.52729,2.8019871 -2.52729,7.2522021 0,9.7794847 l 39.66734,39.6673483 c 1.37353,1.373523 3.0767,1.977873 4.99963,1.977873 1.64823,0 3.35139,-0.549409 4.72492,-1.977873 l 19.83367,-19.943556 c 40.491464,-40.491462 94.6632165,-63.127123 152.186365,-63.127123 57.797855,0 111.694905,22.635661 152.461065,63.127123 l 19.83368,19.833674 c 2.52728,2.527282 6.97749,2.527282 9.77948,0 l 39.39265,-39.6673482 c 2.80198,-2.8019872 2.80198,-6.9774975 0,-9.7794848 z"
         id="path1"
         style="fill:#000000;fill-opacity:0.2;stroke-width:5.49409"
         transform="translate(-1.3e-6)" /><path
         d="M 172.72117,46.603663 C 127.40043,1.4664053 63.279618,-13.522106 5.5550375,1.6381281 -23.142857,9.1750701 -50.259858,24.163582 -72.699939,46.603663 l -19.833674,19.833674 c -2.801987,2.801987 -2.801987,6.977497 0,9.779484 l 39.667348,39.667349 c 1.373523,1.09882 3.076692,1.97787 4.724919,1.97787 1.977874,0 3.626102,-0.82411 4.999625,-1.97787 L -23.308047,96.050495 C -3.7490778,76.491526 22.183039,65.613223 49.818324,65.613223 c 27.90999,0 53.897046,10.878303 73.456016,30.437272 l 19.83368,19.833675 c 2.52728,2.52728 7.2522,2.52728 9.77948,0 l 39.66735,-39.667349 c 2.52728,-2.801987 2.52728,-7.252202 0,-9.779484 z"
         id="path2"
         style="fill:#000000;fill-opacity:0.2;stroke-width:5.49409"
         transform="translate(-1.3e-6)" /><path
         d="m 93.716124,125.60871 c -23.185071,-23.45977 -64.225942,-23.45977 -87.4110125,0 -8.076316,8.07632 -13.954995,18.40521 -15.9328684,29.06375 -0.5494091,2.25258 0,4.72492 1.6482278,6.42809 L 44.8187,213.89878 c 1.373523,1.09882 3.076692,1.97787 4.999624,1.97787 1.977874,0 3.626101,-0.82411 4.999625,-1.97787 l 53.072931,-53.07293 c 1.64823,-1.64823 2.25258,-4.17551 1.64823,-6.7028 -2.4174,-10.32889 -7.74667,-20.38308 -15.822986,-28.51434 z"
         id="path3"
         style="mix-blend-mode:normal;fill:#000000;fill-opacity:0.2;stroke-width:5.49409"
         transform="translate(-1.3e-6)"
         clip-path="none" /><path
         style="color:#000000;mix-blend-mode:normal;fill:#f8f8f8;fill-opacity:0.784595;stroke-linecap:round;stroke-linejoin:round;-inkscape-stroke:none;paint-order:stroke markers fill"
         d="m -39.416016,-571.10156 c -13.201458,0 -24.296875,11.09541 -24.296875,24.29687 v 401.85352 c 0,13.20146 11.095417,24.29883 24.296875,24.29883 H 6.5273437 c 13.2014583,0 24.2988283,-11.09737 24.2988283,-24.29883 v -401.85352 c 0,-13.20146 -11.09737,-24.29687 -24.2988283,-24.29687 z m 5.703125,30 H 0.82617188 v 390.44922 H -33.712891 Z"
         id="path11"
         transform="rotate(135.96856,-59.043968,-144.92109)" /><g
         id="rect8"
         transform="rotate(135.96856,-59.043968,-144.92109)"><path
           style="color:#000000;fill:#000000;stroke-linecap:round;stroke-linejoin:round;-inkscape-stroke:none;paint-order:stroke markers fill"
           d="M -39.415889,-556.10187 H 6.5275145 c 5.1509295,0 9.2977075,4.14678 9.2977075,9.29771 v 401.8538 c 0,5.15093 -4.146778,9.29771 -9.2977075,9.29771 H -39.415889 c -5.15093,0 -9.297707,-4.14678 -9.297707,-9.29771 v -401.8538 c 0,-5.15093 4.146777,-9.29771 9.297707,-9.29771 z"
           id="path12" /></g></g></g><g
     id="g20"
     transform="translate(3.7742813,-2.08466)"><path
       d="M 142.6222,191.87958 93.13587,140.69013 C 78.00395,150.89016 63.7259,162.5854 50.51673,175.72724 l -19.83398,19.83398 c -2.52729,2.80199 -2.52729,7.25202 0,9.7793 l 39.66797,39.66797 c 1.37353,1.37352 3.07707,1.97851 5,1.97851 1.64823,0 3.35108,-0.55005 4.72461,-1.97851 l 19.83398,-19.94336 c 12.94755,-12.94755 27.30552,-24.04566 42.71289,-33.18555 z"
       style="fill:#000000;fill-opacity:1;stroke-width:5.49409"
       id="path24" /><path
       d="m 185.40541,100.11591 59.92578,61.98828 c 2.25224,-0.0698 4.50042,-0.16601 6.76367,-0.16601 57.7978,0 111.69482,22.63553 152.46094,63.12695 l 19.83398,19.83398 c 2.52728,2.52728 6.97731,2.52728 9.7793,0 l 39.39258,-39.66797 c 2.80197,-2.80198 2.80197,-6.97731 0,-9.77929 l -19.61329,-19.7793 C 426.86252,148.8614 395.60155,127.93027 361.53822,113.97529 327.47487,99.7456 290.3337,92.21747 252.09486,92.21747 c -22.77167,0 -45.10471,2.72475 -66.68945,7.89844 z"
       style="fill:#000000;fill-opacity:1;stroke-width:5.49409"
       id="path20" /><path
       d="m 225.22962,277.32685 -52.36914,-54.16992 c -15.61257,8.01112 -30.28191,18.46551 -43.33789,31.52148 l -19.83398,19.83398 c -2.80199,2.80199 -2.80199,6.97732 0,9.7793 l 39.66797,39.66797 c 1.37352,1.09882 3.07638,1.97656 4.72461,1.97656 1.97787,0 3.62648,-0.8228 5,-1.97656 l 19.83203,-19.83398 c 13.05191,-13.05192 28.97622,-22.13104 46.3164,-26.79883 z"
       style="fill:#000000;fill-opacity:1;stroke-width:5.49409"
       id="path23" /><path
       d="m 289.90345,208.20966 88.94727,92.00781 15.92578,-15.92578 c 2.52728,-2.80198 2.52728,-7.25202 0,-9.7793 l -19.83398,-19.83398 c -24.24623,-24.14807 -53.8892,-39.57883 -85.03907,-46.46875 z"
       style="fill:#000000;fill-opacity:1;stroke-width:5.49409"
       id="path21" /><path
       d="m 311.51283,366.57685 -47.81446,-49.45899 c -19.58314,-3.48018 -40.80424,2.02855 -55.17187,16.56641 -8.07631,8.07631 -13.95377,18.40397 -15.93164,29.0625 -0.54941,2.25258 2.1e-4,4.72457 1.64844,6.42773 l 52.79687,52.79883 c 1.37352,1.09882 3.07707,1.97852 5,1.97852 1.97787,0 3.62648,-0.82476 5,-1.97852 l 53.07227,-53.07226 c 0.64814,-0.64814 1.08511,-1.45767 1.40039,-2.32422 z"
       style="fill:#000000;fill-opacity:1;stroke-width:5.49409"
       id="path22" /><path
       style="color:#000000;fill:#000000;stroke-linecap:round;stroke-linejoin:round;-inkscape-stroke:none;paint-order:stroke markers fill"
       d="m 414.85866,372.41805 -33.0314,31.9331 c -3.70331,3.58017 -9.5669,3.48103 -13.14707,-0.22227 L 89.370505,115.21267 c -3.580169,-3.70331 -3.48104,-9.5669 0.222265,-13.14707 l 33.0314,-31.933099 c 3.70331,-3.580169 9.5669,-3.481036 13.14707,0.222269 l 279.30968,288.91621 c 3.58017,3.7033 3.48104,9.5669 -0.22226,13.14707 z"
       id="path18" /></g></svg>
