<?xml version="1.0" encoding="UTF-8" standalone="no"?>
<!-- Created with Inkscape (http://www.inkscape.org/) -->

<svg
   width="512"
   height="512"
   viewBox="0 0 512 512"
   version="1.1"
   id="svg1"
   xml:space="preserve"
   xmlns="http://www.w3.org/2000/svg"
   xmlns:svg="http://www.w3.org/2000/svg"><defs
     id="defs1"><linearGradient
       id="swatch5"><stop
         style="stop-color:#000000;stop-opacity:1;"
         offset="0"
         id="stop5" /></linearGradient></defs><g
     id="layer1"
     transform="translate(3.7742813,-2.08466)"
     style="opacity:0"><g
       id="g1"
       transform="translate(202.22197,208.07466)"><path
         d="M 251.72623,-32.401388 C 224.64035,-59.21256 193.37896,-80.145052 159.31559,-94.100047 125.25221,-108.32975 88.112149,-115.85665 49.873265,-115.85665 c -76.203063,0 -147.681207,29.88786 -201.578255,83.510203 l -19.83367,19.833674 c -2.52729,2.8019871 -2.52729,7.2522021 0,9.7794847 l 39.66734,39.6673483 c 1.37353,1.373523 3.0767,1.977873 4.99963,1.977873 1.64823,0 3.35139,-0.549409 4.72492,-1.977873 l 19.83367,-19.943556 c 40.491464,-40.491462 94.6632165,-63.127123 152.186365,-63.127123 57.797855,0 111.694905,22.635661 152.461065,63.127123 l 19.83368,19.833674 c 2.52728,2.527282 6.97749,2.527282 9.77948,0 l 39.39265,-39.6673482 c 2.80198,-2.8019872 2.80198,-6.9774975 0,-9.7794848 z"
         id="path1"
         style="fill:#000000;fill-opacity:0.2;stroke-width:5.49409"
         transform="translate(-1.3e-6)" /><path
         d="M 172.72117,46.603663 C 127.40043,1.4664053 63.279618,-13.522106 5.5550375,1.6381281 -23.142857,9.1750701 -50.259858,24.163582 -72.699939,46.603663 l -19.833674,19.833674 c -2.801987,2.801987 -2.801987,6.977497 0,9.779484 l 39.667348,39.667349 c 1.373523,1.09882 3.076692,1.97787 4.724919,1.97787 1.977874,0 3.626102,-0.82411 4.999625,-1.97787 L -23.308047,96.050495 C -3.7490778,76.491526 22.183039,65.613223 49.818324,65.613223 c 27.90999,0 53.897046,10.878303 73.456016,30.437272 l 19.83368,19.833675 c 2.52728,2.52728 7.2522,2.52728 9.77948,0 l 39.66735,-39.667349 c 2.52728,-2.801987 2.52728,-7.252202 0,-9.779484 z"
         id="path2"
         style="fill:#000000;fill-opacity:0.2;stroke-width:5.49409"
         transform="translate(-1.3e-6)" /><path
         d="m 93.716124,125.60871 c -23.185071,-23.45977 -64.225942,-23.45977 -87.4110125,0 -8.076316,8.07632 -13.954995,18.40521 -15.9328684,29.06375 -0.5494091,2.25258 0,4.72492 1.6482278,6.42809 L 44.8187,213.89878 c 1.373523,1.09882 3.076692,1.97787 4.999624,1.97787 1.977874,0 3.626101,-0.82411 4.999625,-1.97787 l 53.072931,-53.07293 c 1.64823,-1.64823 2.25258,-4.17551 1.64823,-6.7028 -2.4174,-10.32889 -7.74667,-20.38308 -15.822986,-28.51434 z"
         id="path3"
         style="mix-blend-mode:normal;fill:#000000;fill-opacity:0.2;stroke-width:5.49409"
         transform="translate(-1.3e-6)"
         clip-path="none" /><path
         style="color:#000000;mix-blend-mode:normal;fill:#f8f8f8;fill-opacity:0.784595;stroke-linecap:round;stroke-linejoin:round;-inkscape-stroke:none;paint-order:stroke markers fill"
         d="m -39.416016,-571.10156 c -13.201458,0 -24.296875,11.09541 -24.296875,24.29687 v 401.85352 c 0,13.20146 11.095417,24.29883 24.296875,24.29883 H 6.5273437 c 13.2014583,0 24.2988283,-11.09737 24.2988283,-24.29883 v -401.85352 c 0,-13.20146 -11.09737,-24.29687 -24.2988283,-24.29687 z m 5.703125,30 H 0.82617188 v 390.44922 H -33.712891 Z"
         id="path11"
         transform="rotate(135.96856,-59.043968,-144.92109)" /><g
         id="rect8"
         transform="rotate(135.96856,-59.043968,-144.92109)"><path
           style="color:#000000;fill:#000000;stroke-linecap:round;stroke-linejoin:round;-inkscape-stroke:none;paint-order:stroke markers fill"
           d="M -39.415889,-556.10187 H 6.5275145 c 5.1509295,0 9.2977075,4.14678 9.2977075,9.29771 v 401.8538 c 0,5.15093 -4.146778,9.29771 -9.2977075,9.29771 H -39.415889 c -5.15093,0 -9.297707,-4.14678 -9.297707,-9.29771 v -401.8538 c 0,-5.15093 4.146777,-9.29771 9.297707,-9.29771 z"
           id="path12" /></g></g></g><g
     id="g20"
     transform="translate(3.7742813,-2.08466)"><g
       id="g19"
       transform="translate(202.22197,208.07466)"><path
         d="M -59.599767,-16.195078 -109.0861,-67.384531 c -15.13192,10.200033 -29.40997,21.895273 -42.61914,35.037109 l -19.83398,19.833985 c -2.52729,2.8019838 -2.52729,7.2520163 0,9.7792964 l 39.66797,39.6679686 c 1.37353,1.373522 3.07707,1.978516 5,1.978516 1.64823,0 3.35108,-0.550053 4.72461,-1.978516 l 19.83398,-19.943359 c 12.947548,-12.9475455 27.305521,-24.0456621 42.712893,-33.185547 z"
         style="fill-opacity:0.2;stroke-width:5.49409"
         id="path24" /><path
         d="m -16.816564,-107.95875 59.925781,61.988281 c 2.252248,-0.06979 4.500419,-0.166015 6.763672,-0.166015 57.797801,0 111.694821,22.635531 152.460941,63.126953 l 19.83398,19.833984 c 2.52728,2.52728 6.97731,2.52728 9.7793,0 l 39.39258,-39.6679686 c 2.80197,-2.8019844 2.80197,-6.9773124 0,-9.7792964 L 251.7264,-32.402109 C 224.64055,-59.213255 193.37958,-80.144394 159.31625,-94.099375 125.2529,-108.32906 88.111735,-115.85719 49.872889,-115.85719 c -22.771665,0 -45.1047134,2.72475 -66.689453,7.89844 z"
         style="fill-opacity:0.2;stroke-width:5.49409"
         id="path20" /><path
         d="M 23.007655,69.252188 -29.361486,15.082266 c -15.612569,8.011128 -30.281918,18.465511 -43.33789,31.521484 l -19.833985,19.833984 c -2.801984,2.801985 -2.801984,6.977313 0,9.779297 L -52.865392,115.885 c 1.373522,1.09882 3.076384,1.97656 4.724609,1.97656 1.977872,0 3.626479,-0.8228 5,-1.97656 L -23.308751,96.051016 C -10.256835,82.999099 5.6674725,73.919982 23.007655,69.252188 Z"
         style="fill-opacity:0.2;stroke-width:5.49409"
         id="path23" /><path
         d="m 87.681483,0.135 88.947267,92.007813 15.92578,-15.925782 c 2.52728,-2.801984 2.52728,-7.252017 0,-9.779297 L 172.72055,46.60375 C 148.47432,22.455682 118.83135,7.0249224 87.681483,0.135 Z"
         style="fill-opacity:0.2;stroke-width:5.49409"
         id="path21" /><path
         d="M 109.29086,158.50219 61.476405,109.0432 c -19.58314,-3.48018 -40.804243,2.02855 -55.1718751,16.56641 -8.0763079,8.07631 -13.9537692,18.40397 -15.9316406,29.0625 -0.5494083,2.25258 2.114e-4,4.72457 1.6484375,6.42773 l 52.7968752,52.79883 c 1.373521,1.09882 3.07707,1.97852 5,1.97852 1.977872,0 3.626477,-0.82476 5,-1.97852 l 53.072268,-53.07226 c 0.64814,-0.64814 1.08511,-1.45767 1.40039,-2.32422 z"
         style="fill-opacity:0.2;stroke-width:5.49409"
         id="path22" /><g
         id="g18"
         transform="rotate(135.96856,-59.043968,-144.92109)"><path
           style="color:#000000;fill:#000000;stroke-linecap:round;stroke-linejoin:round;-inkscape-stroke:none;paint-order:stroke markers fill"
           d="M -39.415889,-556.10187 H 6.5275145 c 5.1509295,0 9.2977075,4.14678 9.2977075,9.29771 v 401.8538 c 0,5.15093 -4.146778,9.29771 -9.2977075,9.29771 H -39.415889 c -5.15093,0 -9.297707,-4.14678 -9.297707,-9.29771 v -401.8538 c 0,-5.15093 4.146777,-9.29771 9.297707,-9.29771 z"
           id="path18" /></g></g></g></svg>
