<?xml version="1.0" encoding="UTF-8" standalone="no"?>
<!-- Created with Inkscape (http://www.inkscape.org/) -->

<svg
   width="512"
   height="512"
   viewBox="0 0 512 512"
   version="1.1"
   id="svg1"
   xml:space="preserve"
   xmlns="http://www.w3.org/2000/svg"
   xmlns:svg="http://www.w3.org/2000/svg"><defs
     id="defs1" /><g
     id="layer1"
     transform="translate(3.7742813,-2.08466)"><g
       id="g1"
       transform="translate(202.22197,208.07466)"><path
         d="M 251.72623,-32.401388 C 224.64035,-59.21256 193.37896,-80.145052 159.31559,-94.100047 125.25221,-108.32975 88.112149,-115.85665 49.873265,-115.85665 c -76.203063,0 -147.681207,29.88786 -201.578255,83.510203 l -19.83367,19.833674 c -2.52729,2.8019871 -2.52729,7.2522021 0,9.7794847 l 39.66734,39.6673483 c 1.37353,1.373523 3.0767,1.977873 4.99963,1.977873 1.64823,0 3.35139,-0.549409 4.72492,-1.977873 l 19.83367,-19.943556 c 40.491464,-40.491462 94.6632165,-63.127123 152.186365,-63.127123 57.797855,0 111.694905,22.635661 152.461065,63.127123 l 19.83368,19.833674 c 2.52728,2.527282 6.97749,2.527282 9.77948,0 l 39.39265,-39.6673482 c 2.80198,-2.8019872 2.80198,-6.9774975 0,-9.7794848 z"
         id="path1"
         style="fill:#000000;fill-opacity:0.199696;stroke-width:5.49409" /><path
         d="m 172.72117,46.603663 c -67.85204,-67.577339 -177.843771,-67.577339 -245.421109,0 l -19.833674,19.833674 c -2.801987,2.801987 -2.801987,6.977497 0,9.779484 l 39.667348,39.667349 c 1.373523,1.09882 3.076692,1.97787 4.724919,1.97787 1.977874,0 3.626102,-0.82411 4.999625,-1.97787 L -23.308047,96.050495 C -3.7490778,76.491526 22.183039,65.613223 49.818324,65.613223 c 27.90999,0 53.897046,10.878303 73.456016,30.437272 l 19.83368,19.833675 c 2.52728,2.52728 7.2522,2.52728 9.77948,0 l 39.66735,-39.667349 c 2.52728,-2.801987 2.52728,-7.252202 0,-9.779484 z"
         id="path2"
         style="fill:#000000;fill-opacity:1;stroke-width:5.49409" /><path
         d="m 93.716124,125.60871 c -23.185071,-23.45977 -64.225942,-23.45977 -87.4110125,0 -8.076316,8.07632 -13.954995,18.40521 -15.9328684,29.06375 -0.5494091,2.25258 0,4.72492 1.6482278,6.42809 L 44.8187,213.89878 c 1.373523,1.09882 3.076692,1.97787 4.999624,1.97787 1.977874,0 3.626101,-0.82411 4.999625,-1.97787 l 53.072931,-53.07293 c 1.64823,-1.64823 2.25258,-4.17551 1.64823,-6.7028 -2.4174,-10.32889 -7.74667,-20.38308 -15.822986,-28.51434 z"
         id="path3"
         style="fill:#000000;fill-opacity:0.999052;stroke-width:5.49409" /></g></g></svg>
