<?xml version="1.0" encoding="UTF-8" standalone="no"?>
<!-- Created with Inkscape (http://www.inkscape.org/) -->

<svg
   width="512"
   height="512"
   viewBox="0 0 512 512"
   version="1.1"
   id="svg1"
   xml:space="preserve"
   xmlns="http://www.w3.org/2000/svg"
   xmlns:svg="http://www.w3.org/2000/svg"><defs
     id="defs1" /><path
     d="m 378.71742,252.59366 c -67.85204,-67.57734 -177.84377,-67.57734 -245.42111,0 l -19.83367,19.83368 c -2.80199,2.80198 -2.80199,6.97749 0,9.77948 l 39.66734,39.66735 c 1.37353,1.09882 3.0767,1.97787 4.72492,1.97787 1.97788,0 3.62611,-0.82411 4.99963,-1.97787 L 182.6882,302.0405 c 19.55897,-19.55897 45.49109,-30.43728 73.12637,-30.43728 27.90999,0 53.89705,10.87831 73.45602,30.43728 l 19.83368,19.83367 c 2.52728,2.52728 7.2522,2.52728 9.77948,0 l 39.66735,-39.66735 c 2.52728,-2.80199 2.52728,-7.2522 0,-9.77948 z"
     id="path2"
     style="fill:#000000;fill-opacity:1;stroke-width:5.49409" /><path
     d="m 299.71237,331.59871 c -23.18507,-23.45977 -64.22594,-23.45977 -87.41101,0 -8.07631,8.07632 -13.95499,18.40521 -15.93287,29.06375 -0.54941,2.25258 0,4.72492 1.64823,6.42809 l 52.79823,52.79823 c 1.37352,1.09882 3.07669,1.97787 4.99962,1.97787 1.97788,0 3.6261,-0.82411 4.99963,-1.97787 l 53.07293,-53.07293 c 1.64823,-1.64823 2.25258,-4.17551 1.64823,-6.7028 -2.4174,-10.32889 -7.74667,-20.38308 -15.82299,-28.51434 z"
     id="path3"
     style="fill:#000000;fill-opacity:0.999052;stroke-width:5.49409" /></svg>
